<?xml version="1.0" encoding="UTF-8"?>
<svg width="27px" height="17px" viewBox="0 0 27 17" version="1.1" xmlns="http://www.w3.org/2000/svg" xmlns:xlink="http://www.w3.org/1999/xlink">
    <!-- Generator: Sketch 52.6 (67491) - http://www.bohemiancoding.com/sketch -->
    <title>AA</title>
    <desc>Created with Sketch.</desc>
    <g id="Page-1" stroke="none" stroke-width="1" fill="none" fill-rule="evenodd">
        <g id="UI-KIT" transform="translate(-1456.000000, -5251.000000)" fill="#FFFFFF">
            <g id="AA" transform="translate(1456.000000, 5251.000000)">
                <path d="M26.734,15.846 C26.734,15.9780007 26.6240011,16.044 26.404,16.044 C26.2573326,16.044 26.1253339,16.0366667 26.008,16.022 L23.214,15.978 L20.42,16.022 C20.3173328,16.0366667 20.2073339,16.044 20.09,16.044 C19.7966652,16.044 19.65,15.9706674 19.65,15.824 C19.65,15.6626659 19.847998,15.582 20.244,15.582 C21.5346731,15.5673333 22.18,15.4353346 22.18,15.186 C22.18,15.1713333 22.1653335,15.1126672 22.136,15.01 L21.96,14.416 L21.85,14.108 C21.7179993,13.6533311 21.3953359,12.6486744 20.882,11.094 L16.174,11.094 C15.2939956,13.4406784 14.854,14.7899982 14.854,15.142 C14.854,15.3473344 14.9419991,15.4719998 15.118,15.516 C15.1620002,15.5306667 15.5286632,15.5599998 16.218,15.604 C16.6433355,15.6186667 16.856,15.6919993 16.856,15.824 C16.856,15.9706674 16.6653352,16.044 16.284,16.044 C15.60933,16.044 14.8246711,16.014667 13.93,15.956 C13.7099989,15.9413333 13.4826678,15.934 13.248,15.934 C13.0133322,15.934 12.7860011,15.9486665 12.566,15.978 C12.4486661,15.9926667 12.3533337,16 12.28,16 C12.0746656,16 11.972,15.9340007 11.972,15.802 C11.972,15.6699993 12.2029977,15.5966667 12.665,15.582 C13.1270023,15.5673333 13.4606656,15.4976673 13.666,15.373 C13.8713344,15.2483327 14.0326661,15.0100018 14.15,14.658 C16.0420095,9.26063968 17.5819941,4.92668302 18.77,1.656 C18.7993335,1.47999912 18.8579996,1.2820011 18.946,1.062 L19.056,0.666 C19.1000002,0.50466586 19.1586663,0.424 19.232,0.424 C19.2760002,0.424 19.3126665,0.46799956 19.342,0.556 C19.5326676,1.12800286 19.96533,2.32332424 20.64,4.142 C21.1680026,5.56467378 22.4806562,9.1359714 24.578,14.856 C24.6953339,15.1786683 24.8456657,15.3839996 25.029,15.472 C25.2123342,15.5600004 25.5899971,15.6113333 26.162,15.626 C26.5433352,15.6406667 26.734,15.7139993 26.734,15.846 Z M20.75,10.588 C20.5153322,9.9279967 20.1266694,8.83534096 19.584,7.31 L18.528,4.296 C17.9119969,5.9093414 17.1713377,8.00665376 16.306,10.588 L20.75,10.588 Z M10.058,16.402 C10.058,16.4860004 9.9880007,16.528 9.848,16.528 C9.7546662,16.528 9.67066704,16.5233334 9.596,16.514 L7.818,16.486 L6.04,16.514 C5.97466634,16.5233334 5.90466704,16.528 5.83,16.528 C5.6433324,16.528 5.55,16.4813338 5.55,16.388 C5.55,16.2853328 5.67599874,16.234 5.928,16.234 C6.74933744,16.2246666 7.16,16.1406675 7.16,15.982 C7.16,15.9726666 7.15066676,15.9353337 7.132,15.87 L7.02,15.492 L6.95,15.296 C6.86599958,15.0066652 6.6606683,14.3673383 6.334,13.378 L3.338,13.378 C2.7779972,14.8713408 2.498,15.7299989 2.498,15.954 C2.498,16.0846673 2.55399944,16.1639999 2.666,16.192 C2.69400014,16.2013334 2.92733114,16.2199999 3.366,16.248 C3.63666802,16.2573334 3.772,16.3039996 3.772,16.388 C3.772,16.4813338 3.65066788,16.528 3.408,16.528 C2.97866452,16.528 2.47933618,16.5093335 1.91,16.472 C1.7699993,16.4626666 1.62533408,16.458 1.476,16.458 C1.32666592,16.458 1.1820007,16.4673332 1.042,16.486 C0.96733296,16.4953334 0.9066669,16.5 0.86,16.5 C0.72933268,16.5 0.664,16.4580004 0.664,16.374 C0.664,16.2899996 0.81099853,16.2433334 1.105,16.234 C1.39900147,16.2246666 1.61133268,16.1803337 1.742,16.101 C1.87266732,16.0216663 1.97533296,15.8700011 2.05,15.646 C3.25400602,12.2113162 4.23399622,9.45334374 4.99,7.372 C5.00866676,7.25999944 5.04599972,7.1340007 5.102,6.994 L5.172,6.742 C5.20000014,6.63933282 5.2373331,6.588 5.284,6.588 C5.31200014,6.588 5.33533324,6.61599972 5.354,6.672 C5.47533394,7.03600182 5.75066452,7.79666088 6.18,8.954 C6.51600168,9.85933786 7.35132666,12.1319818 8.686,15.772 C8.76066704,15.9773344 8.85633275,16.1079997 8.973,16.164 C9.08966725,16.2200003 9.32999818,16.2526666 9.694,16.262 C9.93666788,16.2713334 10.058,16.3179996 10.058,16.402 Z M6.25,13.056 C6.10066592,12.6359979 5.85333506,11.9406715 5.508,10.97 L4.836,9.052 C4.44399804,10.0786718 3.97266942,11.4133251 3.422,13.056 L6.25,13.056 Z" id="Combined-Shape"></path>
            </g>
        </g>
    </g>
</svg>