<?xml version="1.0" encoding="UTF-8"?>
<svg width="17px" height="19px" viewBox="0 0 17 19" version="1.1" xmlns="http://www.w3.org/2000/svg" xmlns:xlink="http://www.w3.org/1999/xlink">
    <!-- Generator: Sketch 52.6 (67491) - http://www.bohemiancoding.com/sketch -->
    <title>book</title>
    <desc>Created with Sketch.</desc>
    <g id="Page-1" stroke="none" stroke-width="1" fill="none" fill-rule="evenodd">
        <g id="UI-KIT" transform="translate(-1318.000000, -5177.000000)" fill="#FFFFFF" fill-rule="nonzero" stroke="#FFFFFF" stroke-width="0.4">
            <g id="book" transform="translate(1319.000000, 5178.000000)">
                <path d="M14.4642857,2.14502777 L11.7857143,2.14502777 L11.7857143,0.537884912 C11.7857143,0.323599198 11.6785714,0.109313483 11.4642857,0.0557420547 C11.25,-0.0514008024 11.0357143,0.00217062616 10.875,0.162884912 C9,2.03788491 2.78571429,2.1985992 0.535714286,2.14502777 C0.428571429,2.14502777 0.267857143,2.1985992 0.160714286,2.30574205 C0.0535714286,2.41288491 0,2.52002777 0,2.68074205 L0,16.6093135 C0,16.8771706 0.214285714,17.1450278 0.535714286,17.1450278 C1.07142857,17.1450278 1.66071429,17.1450278 2.19642857,17.1450278 L14.4642857,17.1450278 C14.7857143,17.1450278 15,16.9307421 15,16.6093135 L15,2.68074205 C15,2.35931348 14.7857143,2.14502777 14.4642857,2.14502777 Z M1.07142857,16.0735992 L1.07142857,3.21645634 C2.78571429,3.21645634 7.98214286,3.16288491 10.7142857,1.60931348 L10.7142857,14.2521706 C9.10714286,15.6450278 4.92857143,16.0200278 2.19642857,16.0735992 L1.60714286,16.0735992 C1.39285714,16.0735992 1.23214286,16.0735992 1.07142857,16.0735992 Z M13.9285714,16.0735992 L9.48214286,16.0735992 C10.3392857,15.7521706 11.0892857,15.3771706 11.625,14.8414563 C11.7321429,14.7343135 11.7857143,14.6271706 11.7857143,14.4664563 L11.7857143,3.21645634 L13.9285714,3.21645634 L13.9285714,16.0735992 Z" id="Shape"></path>
            </g>
        </g>
    </g>
</svg>